<?xml version="1.0" encoding="UTF-8"?><svg id="Layer_1" xmlns="http://www.w3.org/2000/svg" viewBox="0 0 99.84 99.68"><defs><style>.cls-1,.cls-2,.cls-3{fill:#fff;}.cls-1,.cls-4,.cls-3,.cls-5{stroke:#000201;stroke-linecap:round;}.cls-1,.cls-5{stroke-miterlimit:10;stroke-width:.75px;}.cls-6{fill:#000201;}.cls-4{stroke-dasharray:0 0 0 0 0 0 0 0 0 0 0 3;}.cls-4,.cls-7,.cls-8,.cls-5{fill:none;}.cls-4,.cls-3{stroke-linejoin:round;}.cls-7{stroke:#000;stroke-width:.31px;}.cls-3{stroke-width:.78px;}</style></defs><rect class="cls-8" x=".16" y=".16" width="99.51" height="99.35"/><rect class="cls-8" x="10.24" y="10.08" width="79.35" height="79.51" transform="translate(99.76 -.08) rotate(90)"/><g><g><line class="cls-1" x1="24.62" y1="15.87" x2="27.07" y2="15.87"/><line class="cls-1" x1="19.77" y1="15.87" x2="22.23" y2="15.87"/></g><g><line class="cls-1" x1="23.42" y1="14.69" x2="23.42" y2="12.27"/><line class="cls-1" x1="23.42" y1="19.47" x2="23.42" y2="17.05"/></g></g><g><polyline class="cls-4" points="22.73 58.13 22.73 75.6 32.67 87.48"/><g><g><g><polygon class="cls-6" points="61.95 86.19 61.94 86.2 54.89 85.54 61.95 86.19"/><polygon class="cls-2" points="63.25 81.74 63.23 85.15 61.95 86.19 54.89 85.54 36.47 83.83 36.47 83.82 35.27 82.62 35.26 82.62 35.28 79.21 63.25 81.74"/><polygon class="cls-6" points="31.99 20.64 31.99 20.64 31.99 20.64 31.99 20.64"/><path class="cls-2" d="M69.21,28.15c-1.45-1.72-2.31-2.76-3.76-4.48l-33.45-3.03s0,0,0,0c-.35,.36-.68,.68-.98,.99-.23,.24-.46,.46-.68,.68-.22,.22-.43,.44-.65,.66-.15,.15-.3,.3-.45,.46-.3,.31-.63,.64-.99,1.01l.12,49.04c1.45,1.72,2.31,2.76,3.77,4.49l33.45,3.03c1.44-1.46,2.3-2.34,3.74-3.8l-.12-49.05Zm-5.52,45.64c0,.17-.01,.2-.03,.23l-.06,.14-1.05,1.14c-.1,.09-.17,.13-.25,.16-.1,.04-.21,.04-.29,.03l-28.53-2.58c-.08,0-.19-.03-.29-.08-.1-.05-.18-.13-.25-.21l-.91-1.11-.09-.13-.06-.12-.05-.18v-.11l.05-16.56c.11-.5,.13-.54,.16-.58,.05-.08,.07-.11,.1-.13,.03-.04,.06-.06,.08-.07l.23-.15,30.34,2.63c.55,.05,.98,.58,.98,1.18l-.07,16.5Zm1.3-24.26c0,1.31-.97,2.29-2.16,2.18l-29.94-2.7c-1.19-.11-2.15-1.26-2.14-2.57l.08-19.18c0-.19,.03-.38,.1-.55,.07-.17,.17-.32,.29-.44l1.25-1.27c.12-.12,.26-.23,.43-.28,.16-.06,.34-.07,.51-.06l29.11,2.63c.17,.01,.34,.06,.5,.15,.16,.08,.31,.21,.43,.36l1.24,1.5c.12,.14,.23,.31,.29,.5,.06,.18,.09,.38,.09,.56l-.08,19.18Z"/><polygon class="cls-2" points="64.88 16.77 64.86 21.15 36.88 18.63 36.9 14.24 38.19 13.19 63.59 15.49 64.88 16.77"/><path class="cls-3" d="M74.85,25.67c0-.12-.05-.25-.12-.35-1.57-1.87-2.45-2.91-4.02-4.78-.08-.1-.19-.16-.3-.17l-2.96-.27v-4.26s0-.1-.02-.15l-.04-.09-.14-.21-1.42-1.42c-.12-.12-.27-.18-.42-.2l-25.55-2.31c-.1,0-.2,0-.29,.04l-1.69,.77s.02,0,.02,0c-.06,.02-.12,.05-.18,.09l-1.43,1.16-.06,.06-.05,.07s-.07,.11-.08,.18l-.02,.09v.11l-.03,3.5-4.4,2.18s-.08,.04-.12,.08c-1.56,1.58-2.43,2.47-4,4.05-.08,.08-.13,.2-.12,.33l.12,49.44c0,.13,.05,.25,.12,.35,1.57,1.87,2.45,2.92,4.02,4.79,.08,.09,.19,.15,.3,.16l2.46,.22v3.74c.02,.05,.04,.1,.21,.35l1.29,1.29c.16,.16,.36,.26,.57,.28l25.53,2.37s.1,0,.15-.01c.05-.01,.1-.03,.15-.04,.03,0,.06-.02,.09-.04l1.68-.75s.06-.03,.08-.05l1.43-1.16,.07-.07,.05-.06s.06-.11,.08-.17l.02-.09v-.11l.02-2.62s.09-.01,.13-.03l4.78-2.36s.07-.04,.11-.07c1.56-1.58,2.43-2.48,4-4.06,.08-.08,.13-.2,.12-.32l-.12-49.44ZM36.9,14.24l1.29-1.04,25.4,2.3,1.28,1.28-.02,4.39-27.98-2.53,.02-4.39Zm26.34,70.91l-1.29,1.04h0l-7.05-.65-18.42-1.71h0l-1.2-1.21h0v-3.41l27.99,2.54v3.41Zm2.33-4.15l-33.45-3.03c-1.45-1.73-2.32-2.76-3.77-4.49l-.12-49.04c.36-.37,.69-.7,.99-1.01,.15-.15,.3-.31,.45-.46,.22-.22,.43-.44,.65-.66,.22-.22,.45-.45,.68-.68,.3-.31,.62-.63,.98-.99,0,0,0,0,0,0l33.45,3.03c1.45,1.72,2.31,2.76,3.76,4.48l.12,49.05c-1.44,1.46-2.3,2.34-3.74,3.8Z"/></g><g><path d="M54.84,86.08c-.3-.03-.52-.29-.49-.59,.03-.28,.26-.49,.54-.49,.02,0,7.1,.66,7.1,.66,.2,.02,.37,.15,.45,.33,.08,.18,.05,.4-.08,.55-.1,.13-.26,.21-.43,.21-.02,0-7.1-.66-7.1-.66Z"/><path d="M36.42,84.37c-.13-.01-.26-.08-.35-.18,0,0-1.18-1.18-1.19-1.19-.1-.1-.16-.24-.16-.39v-3.41c.02-.15,.08-.3,.19-.4,.1-.09,.23-.14,.37-.14,.02,0,28.02,2.54,28.02,2.54,.28,.03,.5,.26,.5,.54v3.41c-.02,.16-.09,.32-.22,.42l-1.29,1.04c-.1,.08-.22,.12-.34,.12-.02,0-25.52-2.37-25.52-2.37Z"/><polygon points="31.99 20.64 31.99 20.64 31.99 20.64 31.99 20.64"/><path d="M32.08,78.52c-.14-.01-.28-.08-.37-.19l-3.77-4.49c-.08-.1-.13-.22-.13-.35l-.12-49.04c0-.14,.06-.28,.16-.38l3.72-3.78s.05-.05,.08-.07c.09-.07,.21-.11,.33-.11,.02,0,33.5,3.03,33.5,3.03,.14,.01,.28,.08,.37,.19l3.76,4.48c.08,.1,.13,.22,.13,.35l.12,49.05c0,.14-.06,.28-.16,.38l-3.74,3.8c-.1,.1-.24,.16-.39,.16-.02,0-33.5-3.03-33.5-3.03Zm.34-7.37l.05,.07,.88,1.07s.06,.06,.09,.08l28.61,2.6,1.08-1.1,.02-.04v-.06l.06-16.47c0-.32-.22-.61-.49-.64l-30.15-2.62-.07,.04c-.01,.06-.04,.16-.09,.39l-.07,16.5,.02,.08,.04,.09Zm.86-45.95c-.07,0-.14,.01-.2,.03-.08,.03-.15,.08-.22,.15l-1.25,1.27c-.08,.08-.14,.17-.17,.26-.04,.11-.06,.22-.06,.35l-.08,19.18c0,1.04,.73,1.95,1.65,2.03l29.94,2.7s.09,0,.13,0c.81,0,1.43-.71,1.43-1.65l.08-19.18c0-.14-.02-.27-.06-.38-.04-.11-.1-.22-.19-.33l-1.24-1.5c-.08-.1-.17-.18-.26-.22-.1-.06-.2-.09-.3-.09l-29.12-2.63h-.07Z"/><path d="M36.83,19.17c-.28-.03-.5-.26-.5-.54l.02-4.39c0-.16,.08-.32,.2-.42l1.29-1.04c.1-.08,.22-.12,.34-.12,.02,0,25.45,2.3,25.45,2.3,.13,.01,.25,.07,.33,.16l1.28,1.28c.1,.1,.16,.24,.16,.39l-.02,4.39c0,.15-.07,.3-.18,.4-.1,.09-.23,.14-.37,.14-.02,0-28.03-2.53-28.03-2.53Z"/><path d="M61.96,87.7l-25.52-2.37c-.35-.03-.67-.19-.91-.44l-1.28-1.29c-.25-.35-.32-.46-.35-.63,0-.02-.02-.12-.03-.14v-3.2l-1.96-.18c-.26-.02-.5-.15-.67-.36l-4.02-4.78c-.16-.2-.25-.45-.25-.7l-.12-49.44c0-.25,.09-.51,.28-.71l4-4.06c.08-.08,.17-.15,.28-.2l4.09-2.02v-3.16l.03-.18s.02-.11,.03-.13c.03-.15,.09-.29,.19-.4,.01-.01,.08-.1,.09-.11,.02-.02,.09-.1,.11-.11l1.43-1.16c.06-.06,.15-.11,.24-.15,0,0,1.72-.78,1.72-.78,.16-.07,.31-.1,.46-.1,.02,0,.09,0,.11,0l25.54,2.31c.28,.03,.54,.15,.75,.35l1.43,1.43s.05,.05,.07,.08l.14,.21s.04,.07,.05,.1l.04,.09c.04,.1,.07,.2,.08,.3v3.81l2.45,.22c.27,.02,.52,.16,.68,.38l4.01,4.76c.17,.22,.25,.46,.25,.7l.12,49.44c.01,.26-.1,.53-.29,.72l-3.99,4.05c-.09,.09-.17,.14-.25,.18l-4.62,2.28v2.25l-.03,.18s-.02,.11-.03,.13c-.04,.16-.09,.29-.18,.4-.01,.02-.07,.09-.09,.11l-.07,.07-1.48,1.21s-.13,.09-.16,.1l-1.72,.77s-.13,.06-.16,.07l-.12,.04c-.1,.03-.2,.05-.29,.05-.02,0-.07,0-.09,0Zm-.19-2.06l.92-.75v-2.65l-26.87-2.44v2.59l.9,.91,25.05,2.33Zm3.61-5.2l3.4-3.45-.12-48.63-3.49-4.16-32.97-2.99-2.58,2.62-.83,.85,.12,48.62,3.5,4.16,32.97,2.98Zm-1.06-59.88v-3.57l-.97-.98-24.98-2.26-.92,.74-.02,3.63,26.89,2.43Z"/></g><g><path d="M55.52,86.76c-.3-.03-.52-.29-.49-.59,.03-.28,.26-.49,.54-.49,.02,0,7.1,.66,7.1,.66,.2,.02,.37,.15,.45,.33,.08,.18,.05,.4-.08,.55-.1,.13-.26,.21-.43,.21-.02,0-7.1-.66-7.1-.66Z"/><path d="M37.1,85.05c-.13-.01-.26-.08-.35-.18,0,0-1.18-1.18-1.19-1.19-.1-.1-.16-.24-.16-.39v-3.41c.02-.15,.08-.3,.19-.4,.1-.09,.23-.14,.37-.14,.02,0,28.02,2.54,28.02,2.54,.28,.03,.5,.26,.5,.54v3.41c-.02,.16-.09,.32-.22,.42l-1.29,1.04c-.1,.08-.22,.12-.34,.12-.02,0-25.52-2.37-25.52-2.37Z"/><polygon points="32.67 21.32 32.67 21.32 32.67 21.32 32.67 21.32"/><path d="M32.76,79.2c-.14-.01-.28-.08-.37-.19l-3.77-4.49c-.08-.1-.13-.22-.13-.35l-.12-49.04c0-.14,.06-.28,.16-.38l3.72-3.78s.05-.05,.08-.07c.09-.07,.21-.11,.33-.11,.02,0,33.5,3.03,33.5,3.03,.14,.01,.28,.08,.37,.19l3.76,4.48c.08,.1,.13,.22,.13,.35l.12,49.05c0,.14-.06,.28-.16,.38l-3.74,3.8c-.1,.1-.24,.16-.39,.16-.02,0-33.5-3.03-33.5-3.03Zm.34-7.37l.05,.07,.88,1.07s.06,.06,.09,.08l28.61,2.6,1.08-1.1,.02-.04v-.06l.06-16.47c0-.32-.22-.61-.49-.64l-30.15-2.62-.07,.04c-.01,.06-.04,.16-.09,.39l-.07,16.5,.02,.08,.04,.09Zm.86-45.95c-.07,0-.14,.01-.2,.03-.08,.03-.15,.08-.22,.15l-1.25,1.27c-.08,.08-.14,.17-.17,.26-.04,.11-.06,.22-.06,.35l-.08,19.18c0,1.04,.73,1.95,1.65,2.03l29.94,2.7s.09,0,.13,0c.81,0,1.43-.71,1.43-1.65l.08-19.18c0-.14-.02-.27-.06-.38-.04-.11-.1-.22-.19-.33l-1.24-1.5c-.08-.1-.17-.18-.26-.22-.1-.06-.2-.09-.3-.09l-29.12-2.63h-.07Z"/><path d="M37.51,19.85c-.28-.03-.5-.26-.5-.54l.02-4.39c0-.16,.08-.32,.2-.42l1.29-1.04c.1-.08,.22-.12,.34-.12,.02,0,25.45,2.3,25.45,2.3,.13,.01,.25,.07,.33,.16l1.28,1.28c.1,.1,.16,.24,.16,.39l-.02,4.39c0,.15-.07,.3-.18,.4-.1,.09-.23,.14-.37,.14-.02,0-28.03-2.53-28.03-2.53Z"/><path d="M62.64,88.38l-25.52-2.37c-.35-.03-.67-.19-.91-.44l-1.28-1.29c-.25-.35-.32-.46-.35-.63,0-.02-.02-.12-.03-.14v-3.2l-1.96-.18c-.26-.02-.5-.15-.67-.36l-4.02-4.78c-.16-.2-.25-.45-.25-.7l-.12-49.44c0-.25,.09-.51,.28-.71l4-4.06c.08-.08,.17-.15,.28-.2l4.09-2.02v-3.16l.03-.18s.02-.11,.03-.13c.03-.15,.09-.29,.19-.4,.01-.01,.08-.1,.09-.11,.02-.02,.09-.1,.11-.11l1.43-1.16c.06-.06,.15-.11,.24-.15,0,0,1.72-.78,1.72-.78,.16-.07,.31-.1,.46-.1,.02,0,.09,0,.11,0l25.54,2.31c.28,.03,.54,.15,.75,.35l1.43,1.43s.05,.05,.07,.08l.14,.21s.04,.07,.05,.1l.04,.09c.04,.1,.07,.2,.08,.3v3.81l2.45,.22c.27,.02,.52,.16,.68,.38l4.01,4.76c.17,.22,.25,.46,.25,.7l.12,49.44c.01,.26-.1,.53-.29,.72l-3.99,4.05c-.09,.09-.17,.14-.25,.18l-4.62,2.28v2.25l-.03,.18s-.02,.11-.03,.13c-.04,.16-.09,.29-.18,.4-.01,.02-.07,.09-.09,.11l-.07,.07-1.48,1.21s-.13,.09-.16,.1l-1.72,.77s-.13,.06-.16,.07l-.12,.04c-.1,.03-.2,.05-.29,.05-.02,0-.07,0-.09,0Zm-.19-2.06l.92-.75v-2.65l-26.87-2.44v2.59l.9,.91,25.05,2.33Zm3.61-5.2l3.4-3.45-.12-48.63-3.49-4.16-32.97-2.99-2.58,2.62-.83,.85,.12,48.62,3.5,4.16,32.97,2.98Zm-1.06-59.88v-3.57l-.97-.98-24.98-2.26-.92,.74-.02,3.63,26.89,2.43Z"/></g><g><polygon class="cls-2" points="61.95 86.19 61.94 86.2 54.89 85.54 61.95 86.19"/><polygon class="cls-2" points="63.25 81.74 63.23 85.15 61.95 86.19 54.89 85.54 36.47 83.83 36.47 83.82 35.27 82.62 35.26 82.62 35.28 79.21 63.25 81.74"/><polygon class="cls-2" points="31.99 20.64 31.99 20.64 31.99 20.64 31.99 20.64"/><path class="cls-2" d="M69.21,28.15c-1.45-1.72-2.31-2.76-3.76-4.48l-33.45-3.03s0,0,0,0c-.35,.36-.68,.68-.98,.99-.23,.24-.46,.46-.68,.68-.22,.22-.43,.44-.65,.66-.15,.15-.3,.3-.45,.46-.3,.31-.63,.64-.99,1.01l.12,49.04c1.45,1.72,2.31,2.76,3.77,4.49l33.45,3.03c1.44-1.46,2.3-2.34,3.74-3.8l-.12-49.05Zm-5.52,45.64c0,.17-.01,.2-.03,.23l-.06,.14-1.05,1.14c-.1,.09-.17,.13-.25,.16-.1,.04-.21,.04-.29,.03l-28.53-2.58c-.08,0-.19-.03-.29-.08-.1-.05-.18-.13-.25-.21l-.91-1.11-.09-.13-.06-.12-.05-.18v-.11l.05-16.56c.11-.5,.13-.54,.16-.58,.05-.08,.07-.11,.1-.13,.03-.04,.06-.06,.08-.07l.23-.15,30.34,2.63c.55,.05,.98,.58,.98,1.18l-.07,16.5Zm1.3-24.26c0,1.31-.97,2.29-2.16,2.18l-29.94-2.7c-1.19-.11-2.15-1.26-2.14-2.57l.08-19.18c0-.19,.03-.38,.1-.55,.07-.17,.17-.32,.29-.44l1.25-1.27c.12-.12,.26-.23,.43-.28,.16-.06,.34-.07,.51-.06l29.11,2.63c.17,.01,.34,.06,.5,.15,.16,.08,.31,.21,.43,.36l1.24,1.5c.12,.14,.23,.31,.29,.5,.06,.18,.09,.38,.09,.56l-.08,19.18Z"/><polygon class="cls-2" points="64.88 16.77 64.86 21.15 36.88 18.63 36.9 14.24 38.19 13.19 63.59 15.49 64.88 16.77"/><path class="cls-2" d="M74.85,25.67c0-.12-.05-.25-.12-.35-1.57-1.87-2.45-2.91-4.02-4.78-.08-.1-.19-.16-.3-.17l-2.96-.27v-4.26s0-.1-.02-.15l-.04-.09-.14-.21-1.42-1.42c-.12-.12-.27-.18-.42-.2l-25.55-2.31c-.1,0-.2,0-.29,.04l-1.69,.77s.02,0,.02,0c-.06,.02-.12,.05-.18,.09l-1.43,1.16-.06,.06-.05,.07s-.07,.11-.08,.18l-.02,.09v.11l-.03,3.5-4.4,2.18s-.08,.04-.12,.08c-1.56,1.58-2.43,2.47-4,4.05-.08,.08-.13,.2-.12,.33l.12,49.44c0,.13,.05,.25,.12,.35,1.57,1.87,2.45,2.92,4.02,4.79,.08,.09,.19,.15,.3,.16l2.46,.22v3.74c.02,.05,.04,.1,.21,.35l1.29,1.29c.16,.16,.36,.26,.57,.28l25.53,2.37s.1,0,.15-.01c.05-.01,.1-.03,.15-.04,.03,0,.06-.02,.09-.04l1.68-.75s.06-.03,.08-.05l1.43-1.16,.07-.07,.05-.06s.06-.11,.08-.17l.02-.09v-.11l.02-2.62s.09-.01,.13-.03l4.78-2.36s.07-.04,.11-.07c1.56-1.58,2.43-2.48,4-4.06,.08-.08,.13-.2,.12-.32l-.12-49.44ZM36.9,14.24l1.29-1.04,25.4,2.3,1.28,1.28-.02,4.39-27.98-2.53,.02-4.39Zm26.34,70.91l-1.29,1.04h0l-7.05-.65-18.42-1.71h0l-1.2-1.21h0v-3.41l27.99,2.54v3.41Zm2.33-4.15l-33.45-3.03c-1.45-1.73-2.32-2.76-3.77-4.49l-.12-49.04c.36-.37,.69-.7,.99-1.01,.15-.15,.3-.31,.45-.46,.22-.22,.43-.44,.65-.66,.22-.22,.45-.45,.68-.68,.3-.31,.62-.63,.98-.99,0,0,0,0,0,0l33.45,3.03c1.45,1.72,2.31,2.76,3.76,4.48l.12,49.05c-1.44,1.46-2.3,2.34-3.74,3.8Z"/></g><g><polygon class="cls-7" points="61.95 86.19 61.94 86.2 54.89 85.54 61.95 86.19"/><polygon class="cls-7" points="63.25 81.74 63.23 85.15 61.95 86.19 54.89 85.54 36.47 83.83 36.47 83.82 35.27 82.62 35.26 82.62 35.28 79.21 63.25 81.74"/><path class="cls-7" d="M69.21,28.15c-1.45-1.72-2.31-2.76-3.76-4.48l-33.45-3.03s0,0,0,0c-.35,.36-.68,.68-.98,.99-.23,.24-.46,.46-.68,.68-.22,.22-.43,.44-.65,.66-.15,.15-.3,.3-.45,.46-.3,.31-.63,.64-.99,1.01l.12,49.04c1.45,1.72,2.31,2.76,3.77,4.49l33.45,3.03c1.44-1.46,2.3-2.34,3.74-3.8l-.12-49.05Zm-5.52,45.64c0,.17-.01,.2-.03,.23l-.06,.14-1.05,1.14c-.1,.09-.17,.13-.25,.16-.1,.04-.21,.04-.29,.03l-28.53-2.58c-.08,0-.19-.03-.29-.08-.1-.05-.18-.13-.25-.21l-.91-1.11-.09-.13-.06-.12-.05-.18v-.11l.05-16.56c.11-.5,.13-.54,.16-.58,.05-.08,.07-.11,.1-.13,.03-.04,.06-.06,.08-.07l.23-.15,30.34,2.63c.55,.05,.98,.58,.98,1.18l-.07,16.5Zm1.3-24.26c0,1.31-.97,2.29-2.16,2.18l-29.94-2.7c-1.19-.11-2.15-1.26-2.14-2.57l.08-19.18c0-.19,.03-.38,.1-.55,.07-.17,.17-.32,.29-.44l1.25-1.27c.12-.12,.26-.23,.43-.28,.16-.06,.34-.07,.51-.06l29.11,2.63c.17,.01,.34,.06,.5,.15,.16,.08,.31,.21,.43,.36l1.24,1.5c.12,.14,.23,.31,.29,.5,.06,.18,.09,.38,.09,.56l-.08,19.18Z"/><polygon class="cls-7" points="64.88 16.77 64.86 21.15 36.88 18.63 36.9 14.24 38.19 13.19 63.59 15.49 64.88 16.77"/><path class="cls-7" d="M74.85,25.67c0-.12-.05-.25-.12-.35-1.57-1.87-2.45-2.91-4.02-4.78-.08-.1-.19-.16-.3-.17l-2.96-.27v-4.26s0-.1-.02-.15l-.04-.09-.14-.21-1.42-1.42c-.12-.12-.27-.18-.42-.2l-25.55-2.31c-.1,0-.2,0-.29,.04l-1.69,.77s.02,0,.02,0c-.06,.02-.12,.05-.18,.09l-1.43,1.16-.06,.06-.05,.07s-.07,.11-.08,.18l-.02,.09v.11l-.03,3.5-4.4,2.18s-.08,.04-.12,.08c-1.56,1.58-2.43,2.47-4,4.05-.08,.08-.13,.2-.12,.33l.12,49.44c0,.13,.05,.25,.12,.35,1.57,1.87,2.45,2.92,4.02,4.79,.08,.09,.19,.15,.3,.16l2.46,.22v3.74c.02,.05,.04,.1,.21,.35l1.29,1.29c.16,.16,.36,.26,.57,.28l25.53,2.37s.1,0,.15-.01c.05-.01,.1-.03,.15-.04,.03,0,.06-.02,.09-.04l1.68-.75s.06-.03,.08-.05l1.43-1.16,.07-.07,.05-.06s.06-.11,.08-.17l.02-.09v-.11l.02-2.62s.09-.01,.13-.03l4.78-2.36s.07-.04,.11-.07c1.56-1.58,2.43-2.48,4-4.06,.08-.08,.13-.2,.12-.32l-.12-49.44ZM36.9,14.24l1.29-1.04,25.4,2.3,1.28,1.28-.02,4.39-27.98-2.53,.02-4.39Zm26.34,70.91l-1.29,1.04h0l-7.05-.65-18.42-1.71h0l-1.2-1.21h0v-3.41l27.99,2.54v3.41Zm2.33-4.15l-33.45-3.03c-1.45-1.73-2.32-2.76-3.77-4.49l-.12-49.04c.36-.37,.69-.7,.99-1.01,.15-.15,.3-.31,.45-.46,.22-.22,.43-.44,.65-.66,.22-.22,.45-.45,.68-.68,.3-.31,.62-.63,.98-.99,0,0,0,0,0,0l33.45,3.03c1.45,1.72,2.31,2.76,3.76,4.48l.12,49.05c-1.44,1.46-2.3,2.34-3.74,3.8Z"/></g></g><g><g><path class="cls-6" d="M54.3,44.24c-.04-.21-.14-.29-.32-.3h-.02c-.42-.03-.84-.07-1.27-.1-.34-.03-.67-.06-1.01-.11-.04,0-.08,0-.12-.01-.42-.04-.8,.02-1.16,.24-.32,.19-.4,.4-.13,.72,.13,.16,.35,.3,.54,.33,.26,.04,.52,.07,.78,.09,.32,.03,.65,.05,.97,.08,.34,.03,.69,.06,1.03,.09,.23,.02,.46,.04,.69,.07h.02c.23,.02,.25-.06,.18-.29-.07-.26-.14-.53-.19-.81Z"/><path class="cls-6" d="M39.01,42.85c-.04-.22-.13-.29-.31-.3h-.02c-.37-.03-.73-.05-1.09-.08-.25-.02-.51-.05-.76-.1-.05,0-.11-.02-.16-.02-.5-.04-.91,.14-1.34,.33-.07,.03-.14,.15-.13,.23,.03,.37,.36,.72,.7,.76,.51,.05,1.01,.1,1.51,.14,.36,.03,.71,.06,1.06,.09,.18,.02,.35,.03,.53,.05h.02c.2,.02,.24-.06,.18-.28-.08-.27-.14-.54-.19-.81Z"/><path class="cls-6" d="M61.25,39.7s-.09,.03-.13,.1c-.1,.15-.21,.3-.32,.44-.17,.22-.24,.46-.23,.76,.01,.98-.04,1.95,0,2.93,.03,.58,.17,1.16,.27,1.74,.02,.11,.06,.16,.11,.16,.04,0,.08-.02,.13-.07,.23-.22,.34-.51,.34-.86,0-.78,0-1.57,0-2.34,0-.79,.01-1.58,.01-2.37,0-.11-.01-.24-.05-.35-.03-.09-.08-.15-.13-.15Z"/><path class="cls-6" d="M60.29,44.87c-.04-.3-.18-.39-.42-.41h-.04c-.35-.02-.7-.04-1.05-.07-.28-.03-.55-.06-.83-.1-.04,0-.08-.01-.12-.01-.47-.04-.87,.14-1.28,.34-.06,.03-.12,.14-.12,.21,.03,.32,.45,.74,.74,.77l1.49,.13c.36,.03,.72,.06,1.08,.1,.18,.02,.36,.03,.54,.05,.18,.02,.24-.04,.18-.25-.07-.25-.14-.5-.18-.75Z"/><path class="cls-6" d="M39.91,30.98c-.03-.07-.09-.12-.14-.13-.05,0-.1,.04-.13,.14-.11,.45-.28,.9-.29,1.37-.05,1.12-.03,2.25-.02,3.37,0,.14,.04,.29,.11,.42,.14,.25,.3,.48,.46,.72,.04,.05,.07,.1,.11,.16,.05-.05,.12-.09,.14-.15,.04-.1,.04-.21,.04-.31,0-.78,.01-1.57,.01-2.35,0-.79,.03-1.58,0-2.38-.01-.28-.16-.58-.27-.85Z"/><path class="cls-6" d="M39.08,30.72h-.02c-.18-.02-.35-.03-.53-.05-.35-.03-.71-.07-1.06-.1-.26-.02-.53-.05-.79-.07s-.53-.05-.79-.07c-.29-.02-.64,.32-.65,.63l.04,.13c.31,.2,.62,.51,.95,.56,.37,.06,.75,.11,1.13,.14,.48,.04,.96,.07,1.44,.11,.08,0,.21-.1,.25-.2,.1-.25,.14-.53,.22-.79,.06-.2,0-.28-.18-.29Z"/><path class="cls-6" d="M50.28,43.41s.04,.01,.06,.01c.23,.02,.58-.29,.58-.53,0-.83-.01-1.66,.02-2.49,.01-.47-.04-.9-.36-1.26-.11-.12-.22-.23-.33-.35-.04,.16-.12,.31-.13,.47-.01,.6,0,1.21-.01,1.81,0,.58,0,1.15,0,1.73,0,.14,.02,.29,.05,.44,.02,.06,.08,.15,.13,.17Z"/><path class="cls-6" d="M53.94,38.01c-.54-.06-1.09-.11-1.63-.16-.37-.03-.75-.07-1.12-.1-.15,0-.58,.46-.56,.62,.01,.21,.44,.69,.63,.7,.44,.04,.88,.08,1.32,.12,.22,.02,.45,.04,.67,.06,.22,.02,.45,.04,.68,.06,.1,0,.23-.01,.29-.08,.13-.15,.28-.31,.31-.5,.02-.11-.15-.3-.25-.43-.1-.12-.22-.28-.34-.29Z"/><path class="cls-6" d="M54.71,32.23l-.13,.05c-.12,.48-.31,.95-.33,1.44-.05,1.12-.03,2.25-.03,3.37,0,.11,.01,.24,.07,.34,.15,.28,.32,.54,.49,.8,.05,.07,.09,.11,.14,.11,.06,0,.11-.04,.14-.14,.03-.08,.02-.19,.03-.29,0-.77,0-1.53,0-2.29h.04c-.04-.94-.05-1.89-.11-2.84-.01-.19-.2-.38-.31-.56Z"/><path class="cls-6" d="M51.16,33.11c.37,.06,.74,.1,1.11,.14,.48,.04,.97,.07,1.46,.11,.09,0,.21-.1,.25-.2,.09-.25,.12-.52,.19-.77,.06-.22,0-.3-.19-.32h-.02c-.18-.02-.35-.03-.53-.05-.35-.03-.71-.07-1.06-.1-.26-.02-.52-.05-.78-.07-.26-.02-.52-.05-.78-.07-.31-.03-.59,.24-.63,.57,0,.07,.02,.19,.05,.21,.3,.2,.61,.49,.92,.54Z"/><path class="cls-6" d="M60.98,32.75c-.04,.06-.08,.11-.1,.18-.17,.64-.31,1.27-.29,1.96,.02,.71,.03,1.42-.01,2.11-.04,.65,.07,1.22,.49,1.73l.02,.02c.06,.06,.13,.12,.2,.18,.05-.08,.12-.16,.15-.25,.03-.08,.01-.17,.01-.26,0-.76,0-1.53,0-2.29,0-.76,0-1.53,.01-2.29,0-.36-.09-.68-.32-.96-.05-.06-.11-.1-.17-.15Z"/><path class="cls-6" d="M56.6,38.49s.07-.01,.09-.05c.25-.33,.58-.61,.57-1.13-.01-.83-.04-1.67,.02-2.49,.04-.56-.16-.83-.59-1.05-.06-.03-.12-.05-.15-.06-.07,0-.1,.05-.1,.21,0,.69,0,1.39,0,2.08v1.23c0,.32-.02,.65,0,.97,0,.16,.09,.28,.17,.28Z"/><path class="cls-6" d="M60.34,32.64h-.02c-.18-.02-.35-.03-.53-.05-.35-.03-.71-.07-1.06-.1-.26-.02-.53-.05-.79-.07-.26-.02-.53-.05-.79-.07-.26-.02-.64,.36-.65,.64l.04,.13c.31,.19,.62,.5,.95,.56,.36,.06,.73,.1,1.09,.14,.49,.04,.98,.07,1.48,.11,.08,0,.21-.09,.24-.18,.1-.26,.14-.55,.23-.82,.07-.21,0-.28-.17-.29Z"/><path class="cls-6" d="M46.13,38.58c-.11,.11-.19,.27-.29,.39-.18,.21-.22,.47-.22,.76,0,.8,.02,1.6-.01,2.4-.04,.75,.13,1.46,.31,2.18,.03,.13,.07,.18,.12,.18,.05,0,.1-.03,.15-.09,.21-.21,.28-.49,.28-.8,0-.79,0-1.58,.01-2.37v-.73c0-.59,.01-1.17,0-1.76,0-.09-.07-.19-.1-.28-.09,.04-.19,.06-.26,.13Z"/><path class="cls-6" d="M46.07,31.41s-.06,.02-.08,.1c-.12,.48-.3,.95-.32,1.45-.05,1.12-.03,2.24-.03,3.36,0,.1,0,.21,.05,.28,.15,.29,.32,.56,.49,.83,.04,.06,.12,.13,.17,.14,0,0,.01,0,.02,0,.06-.01,.1-.12,.12-.19,.02-.09,.01-.19,.01-.29v-2.31c.01-.8,.02-1.6,.02-2.4,0-.32-.08-.62-.31-.86-.04-.05-.09-.09-.14-.1Z"/><path class="cls-6" d="M39.99,37.84s-.07,.01-.1,.05c-.25,.31-.56,.6-.57,1.06-.02,1.12-.04,2.25,0,3.37,.01,.45,.16,.91,.28,1.36,.03,.11,.09,.18,.16,.18,.06,0,.12-.04,.17-.13,.11-.24,.22-.51,.22-.77,.03-.77,.02-1.54,.02-2.31,0-.45,0-.9,0-1.35,0-.39,0-.78,0-1.17,0-.16-.09-.28-.18-.29Z"/><path class="cls-6" d="M45.92,38.02c.04-.05-.06-.28-.14-.39-.11-.15-.27-.37-.41-.39-.46-.06-.93-.11-1.39-.15-.46-.04-.93-.08-1.39-.12-.15,0-.57,.48-.56,.62,.01,.21,.44,.68,.63,.7,.44,.04,.89,.08,1.32,.12,.27,.02,.55,.04,.82,.07,.17,.02,.34,.03,.51,.06h.03c.35,.03,.42-.31,.57-.53Z"/><path class="cls-6" d="M42.36,35.92c-.01-.54,0-1.08,0-1.61,0-.52-.02-1.04,.01-1.55,.02-.36-.06-.58-.39-.74-.13-.06-.22-.1-.28-.11-.12-.01-.15,.09-.16,.37v.14c0,1.27-.02,2.54-.02,3.81,0,.25,.02,.51,.04,.76,0,.06,.05,.12,.07,.18,.05-.03,.11-.05,.14-.09,.12-.16,.22-.33,.35-.48,.16-.19,.22-.4,.22-.68Z"/><path class="cls-6" d="M35.67,41.99c.24-.1,.32-.24,.31-.53,0-.78-.04-1.57,.02-2.34,.05-.63-.14-1.13-.51-1.6-.04-.06-.12-.13-.16-.14,0,0,0,0-.01,0-.06,.02-.11,.11-.13,.19s-.02,.17-.02,.26c0,.65,0,1.31,0,1.96,0,.59,0,1.17,0,1.76,0,.4-.01,.56,.1,.57,.07,0,.2-.05,.42-.13Z"/><path class="cls-6" d="M35.4,36.53s.02,0,.02,0c.25-.32,.57-.6,.58-1.09,0-.83,.01-1.66,.01-2.48,0-.86,.09-.64-.59-1.09-.06-.04-.11-.07-.15-.07-.07,0-.09,.07-.09,.22,0,.69,0,1.39,0,2.08,0,.68,0,1.36,0,2.05,0,.1-.01,.21,.03,.29,.03,.05,.14,.11,.19,.11Z"/><path class="cls-6" d="M56.53,44.03c.08,0,.21-.05,.43-.14,.22-.09,.29-.23,.29-.49,0-.92,0-1.84,.01-2.75,0-.25-.05-.46-.18-.67-.11-.17-.2-.36-.31-.53-.04-.07-.12-.12-.18-.17-.05,.07-.12,.13-.14,.21-.02,.08-.01,.17-.01,.26,0,.65,0,1.31,0,1.96v1.73c0,.41-.01,.57,.11,.58Z"/><path class="cls-6" d="M48.35,34.55s-.07,0-.11-.01c-.34-.03-.34,0-.34,.44v.17c0,.1,0,.2,0,.29-.02,.24,.06,.35,.28,.37h.01c.61,.04,.52,.08,.53-.56v-.23c0-.41-.02-.44-.38-.48Z"/><path class="cls-6" d="M48.42,40.46c-.09,0-.2,0-.34,0-.07,0-.18,.11-.19,.19-.02,.26-.02,.53,0,.79,0,.07,.08,.18,.14,.21,.12,.05,.23,.08,.31,.08,.27,.02,.36-.15,.36-.58v-.03c0-.5-.02-.64-.28-.67Z"/></g><g><path class="cls-6" d="M35.17,63.74v.12c.01,.06,.01,.12,.02,.17,0,.05,0,.1,.02,.16,0,.07,.01,.12,.02,.18,.01,.07,.02,.15,.03,.22,.04,.25,.09,.49,.16,.74,.02,.07,.04,.13,.06,.19,.05,.19,.11,.36,.18,.53l.05,.12c.03,.08,.06,.15,.09,.22,.09,.21,.2,.42,.31,.64,.04,.06,.07,.12,.13,.21,.04,.06,.07,.12,.11,.18l.09,.14,.05,.07,.09,.13,.05,.07c.04,.06,.09,.12,.13,.18,.13,.16,.26,.32,.41,.47,.06,.06,.11,.12,.17,.17l.05,.04c.05,.05,.1,.1,.15,.15,.06,.05,.11,.1,.18,.16,.06,.05,.11,.09,.17,.14,.05,.03,.09,.07,.15,.11,.05,.03,.09,.06,.12,.09l.03,.03,.05,.03c.13,.09,.25,.17,.38,.25,.04,.03,.08,.05,.14,.08l.08,.04s.1,.05,.14,.08c.08,.04,.16,.08,.23,.11,.08,.04,.16,.07,.25,.11,.04,.02,.1,.04,.15,.06,.06,.02,.11,.04,.16,.05,.06,.02,.11,.03,.16,.05,.11,.03,.21,.06,.31,.08,.07,.02,.15,.04,.22,.05,.06,.01,.13,.02,.2,.04,.11,.01,.21,.03,.32,.04,3.23,.29,5.86-2.39,5.88-5.98,0-.07,0-.13,0-.19,0-.06,0-.13,0-.21,0-.06,0-.12-.01-.18,0-.07-.01-.13-.02-.19,0-.06-.01-.11-.02-.15,0-.05-.01-.1-.02-.16l-.02-.13c-.02-.1-.03-.2-.05-.3-.02-.08-.03-.16-.05-.23-.01-.06-.03-.11-.05-.21-.02-.07-.04-.14-.06-.21-.03-.09-.05-.17-.08-.26l-.02-.06c-.03-.08-.05-.15-.09-.24-.03-.08-.06-.15-.09-.23l-.03-.07c-.03-.07-.07-.15-.11-.23-.03-.06-.06-.12-.1-.19l-.07-.15c-.04-.07-.08-.14-.13-.22-.06-.1-.12-.21-.21-.34-.04-.06-.08-.12-.12-.17l-.1-.14-.11-.15-.09-.11-.09-.11-.07-.08c-.07-.09-.15-.16-.22-.24-.06-.06-.12-.12-.17-.17-.09-.09-.18-.17-.27-.25-.05-.04-.11-.09-.16-.14-.07-.06-.15-.12-.24-.18-.06-.05-.12-.09-.19-.13l-.09-.07c-.06-.04-.12-.08-.19-.11l-.07-.04c-.06-.04-.12-.08-.19-.11-.09-.05-.17-.09-.26-.13-.08-.04-.17-.08-.26-.12-.08-.04-.16-.07-.25-.11-.09-.03-.19-.07-.28-.1-.08-.03-.17-.05-.28-.08-.07-.02-.14-.03-.24-.06l-.09-.02-.1-.02c-.06,0-.11-.02-.17-.03-.05,0-.1-.02-.14-.02h-.15l-.19-.03h-.11c-.09,0-.17,0-.26,0h-.05s-.09,0-.14,0h-.13c-.07,.01-.14,.02-.21,.03-.07,0-.15,.02-.22,.03-.08,.01-.15,.03-.23,.04-.06,.02-.12,.03-.18,.04l-.06,.02h-.04c-.06,.03-.11,.04-.17,.06l-.1,.03-.07,.02-.08,.03-.08,.03c-.09,.03-.17,.07-.26,.11-.06,.03-.12,.06-.21,.1-.06,.03-.11,.06-.17,.09-.05,.02-.09,.05-.14,.08-.05,.03-.09,.06-.14,.09-.05,.03-.1,.07-.16,.11l-.11,.08c-.06,.04-.12,.08-.16,.13-.21,.17-.4,.34-.58,.54l-.1,.11c-.06,.07-.12,.14-.18,.22-.05,.06-.09,.12-.13,.17l-.07,.1-.07,.1s-.07,.1-.09,.14l-.04,.05-.06,.1-.06,.11c-.04,.07-.08,.14-.11,.2-.04,.09-.08,.17-.12,.26-.03,.06-.06,.13-.08,.19-.05,.11-.09,.21-.13,.32l-.04,.11-.04,.1c-.02,.07-.04,.13-.06,.2-.03,.11-.06,.21-.08,.32-.01,.05-.02,.1-.03,.14-.01,.06-.02,.12-.04,.19l-.02,.1c0,.05-.02,.1-.02,.16v.11l-.02,.09v.11c-.03,.2-.04,.41-.04,.62,0,.09,0,.17,0,.25v.12Zm.86-.29h0c0-.18,0-.35,.03-.52v-.1l.02-.08v-.1l.03-.12,.02-.11v-.05s.02-.07,.03-.1c0-.03,.01-.04,.02-.07v-.06c.02-.05,.04-.11,.05-.16,0-.03,.01-.07,.02-.1,.02-.06,.03-.12,.05-.16l.03-.08v-.03l.04-.1c.04-.09,.07-.19,.11-.29l.02-.06s.02-.06,.04-.09c.04-.07,.07-.15,.11-.22,.03-.06,.06-.12,.1-.18l.06-.11,.02-.03,.03-.05,.04-.07,.05-.07,.02-.04,.02-.02,.03-.05,.07-.1s.07-.09,.1-.13c.05-.07,.1-.13,.16-.19h.01l.07-.09c.15-.15,.3-.29,.46-.42,.01-.01,.03-.03,.04-.04,.04-.04,.09-.07,.13-.1l.11-.08s.03-.02,.05-.03c.02-.02,.04-.03,.07-.05l.03-.02s.04-.03,.07-.04c0,0,.02-.01,.03-.02l.09-.05h.02s.03-.03,.05-.04c.03-.02,.06-.03,.09-.05,.08-.04,.13-.07,.18-.09,.08-.03,.15-.07,.23-.09l.08-.03h0l.06-.02,.06-.02,.1-.03,.12-.03h.05l.05-.03c.05-.01,.1-.03,.15-.03,.06-.01,.13-.03,.19-.04,.06-.01,.13-.02,.19-.03,.06,0,.11-.01,.17-.02h.28c.08-.02,.15-.01,.23-.01h.1s.06,0,.09,.01c.02,0,.05,0,.07,0h.13s.09,.02,.14,.03h.11l.11,.04,.07,.02c.09,.02,.15,.03,.2,.04,.09,.02,.16,.05,.22,.07h.03c.08,.03,.16,.06,.24,.09,.07,.02,.14,.06,.21,.08,.08,.03,.15,.07,.22,.1h0c.07,.03,.14,.07,.21,.11,.03,.02,.06,.03,.09,.05,.02,.01,.05,.03,.07,.04l.06,.03h.02s.09,.07,.14,.1l.09,.06s.09,.07,.15,.11c.02,.01,.05,.04,.07,.05,.05,.03,.09,.07,.14,.1l.06,.05,.08,.07c.08,.07,.15,.14,.22,.2,.05,.05,.1,.11,.15,.15,.06,.07,.13,.13,.19,.2l.06,.08,.07,.09,.08,.09h0l.08,.12,.09,.13,.11,.16s.03,.06,.05,.08c.04,.07,.08,.13,.12,.19,.03,.06,.07,.12,.1,.18l.07,.13s.03,.07,.05,.11c.01,.02,.02,.04,.03,.06,0,.02,.02,.05,.03,.07,.02,.04,.04,.08,.06,.13l.02,.04v.02s.03,.06,.05,.1l.03,.08c.02,.06,.04,.1,.05,.15,0,.02,.02,.05,.02,.07l.02,.06s.02,.06,.03,.08c.02,.05,.03,.1,.05,.14,.01,.05,.02,.09,.04,.13h0s0,.03,0,.05h0c.02,.06,.03,.11,.04,.16v.04c.02,.06,.04,.11,.05,.16,.02,.09,.03,.17,.05,.25l.02,.13s.01,.08,.02,.12c0,.05,.01,.09,.02,.13,0,.06,.01,.11,.02,.17,0,.06,0,.11,.01,.18,0,.04,0,.09,0,.15,0,.06,0,.11,0,.17h0c0,.19-.01,.38-.03,.57-.02,.19-.04,.37-.08,.55-.07,.36-.17,.7-.3,1.02-.13,.32-.28,.62-.46,.9-.18,.28-.39,.54-.61,.77-.23,.23-.48,.44-.74,.61-.51,.34-1.09,.56-1.71,.66-.04,0-.07,.01-.11,.02-.31,.04-.64,.05-.97,.02-.09,0-.18-.02-.27-.03l-.17-.03h-.02c-.06-.02-.11-.03-.17-.04-.08-.02-.15-.04-.23-.06h-.04s-.09-.04-.13-.05c-.05-.02-.09-.03-.14-.05l-.09-.03-.05-.02c-.07-.03-.13-.06-.2-.09-.07-.03-.14-.06-.21-.09l-.1-.05-.09-.05s-.07-.04-.11-.06c-.08-.05-.16-.1-.24-.16-.03-.02-.06-.04-.09-.05l-.02-.02h0l-.03-.02c-.05-.04-.09-.07-.13-.09-.04-.03-.07-.06-.12-.09-.04-.03-.08-.07-.13-.11h-.02c-.06-.06-.1-.1-.14-.14-.05-.04-.09-.08-.13-.12l-.04-.04-.02-.02s-.09-.09-.13-.13c-.11-.12-.22-.25-.33-.39h0c-.04-.06-.08-.11-.11-.16l-.05-.07-.07-.11-.04-.06h0l-.09-.13c-.03-.05-.06-.1-.1-.17-.03-.06-.06-.11-.1-.17-.05-.1-.1-.2-.15-.31-.04-.08-.08-.15-.12-.23-.03-.06-.05-.12-.08-.18l-.02-.06-.02-.05c-.04-.11-.07-.21-.11-.32-.01-.04-.03-.09-.04-.13h0c-.02-.06-.03-.11-.04-.16-.04-.14-.06-.28-.09-.42-.01-.07-.03-.14-.05-.21v-.05s-.02-.1-.03-.15c0-.05,0-.1-.02-.15v-.03s0-.06-.01-.09c0-.05,0-.1-.01-.14v-.23c-.01-.07-.01-.14-.01-.21h0Z"/><path class="cls-6" d="M49.66,65.05v.12c0,.06,.01,.12,.02,.17,0,.05,0,.1,.02,.17,0,.07,.01,.11,.02,.17,.01,.07,.02,.15,.03,.22,.04,.25,.09,.5,.16,.74,.02,.06,.03,.13,.05,.19,.05,.18,.11,.36,.18,.53l.04,.12c.03,.08,.06,.15,.09,.22,.09,.21,.2,.43,.31,.64,.04,.06,.07,.12,.13,.21,.04,.06,.07,.12,.11,.18l.09,.14,.05,.07,.09,.13,.05,.07c.04,.06,.09,.12,.14,.18,.13,.16,.26,.32,.41,.47l.17,.17,.05,.04c.05,.05,.11,.1,.15,.15,.06,.05,.12,.1,.18,.16,.06,.05,.11,.09,.17,.14,.04,.03,.09,.07,.14,.11,.04,.03,.08,.06,.11,.08,.03,.02,.05,.04,.1,.06,.12,.09,.25,.17,.38,.25,.04,.03,.08,.05,.14,.08l.08,.04s.09,.05,.14,.07c.08,.04,.16,.08,.24,.11,.08,.04,.16,.07,.24,.11,.05,.02,.1,.04,.16,.06,.06,.02,.11,.04,.15,.05,.06,.02,.11,.03,.16,.05,.11,.03,.21,.06,.31,.08,.08,.02,.15,.04,.22,.05,.07,.01,.13,.02,.2,.04,.11,.01,.22,.03,.32,.04,3.23,.29,5.86-2.39,5.87-5.98v-.19c0-.06,0-.12,0-.19,0-.07,0-.13-.01-.19,0-.07,0-.13-.02-.19,0-.06-.01-.11-.02-.15,0-.05-.02-.1-.02-.16l-.02-.13c-.02-.1-.03-.2-.05-.3-.01-.07-.03-.14-.05-.23-.02-.07-.03-.14-.06-.21-.01-.07-.04-.13-.05-.19-.03-.09-.06-.18-.09-.27l-.02-.06c-.03-.07-.05-.14-.09-.24-.03-.08-.06-.15-.09-.23l-.03-.07c-.03-.07-.07-.15-.11-.23-.03-.06-.06-.12-.09-.19l-.08-.15c-.04-.07-.08-.14-.13-.22-.06-.1-.13-.21-.22-.34-.04-.06-.08-.12-.12-.17l-.1-.14-.11-.15-.09-.11-.09-.11-.07-.08c-.07-.09-.15-.16-.22-.24-.06-.06-.11-.12-.17-.17-.09-.09-.18-.17-.27-.25-.05-.04-.1-.09-.15-.13-.08-.06-.16-.12-.24-.19-.06-.04-.12-.09-.18-.13l-.1-.07c-.06-.04-.12-.08-.19-.11l-.06-.04c-.07-.04-.13-.08-.19-.11-.09-.05-.17-.09-.25-.13-.09-.04-.17-.08-.26-.12-.08-.04-.17-.07-.25-.11-.09-.03-.19-.07-.28-.1-.08-.03-.16-.05-.28-.08-.07-.02-.13-.03-.24-.06l-.09-.02-.11-.02c-.05,0-.11-.02-.16-.02-.05,0-.1-.02-.14-.02h-.15l-.19-.03h-.11c-.08,0-.17,0-.26,0h-.06s-.09,0-.13,0h-.14c-.07,.01-.14,.02-.21,.03-.07,0-.15,.02-.22,.03-.08,.01-.15,.03-.23,.04-.06,.02-.12,.03-.17,.04l-.06,.02h-.05c-.06,.03-.11,.04-.17,.06l-.1,.03-.07,.02-.08,.03-.08,.03c-.09,.03-.18,.07-.27,.11-.06,.03-.12,.06-.21,.1-.06,.03-.11,.06-.16,.09-.05,.02-.09,.05-.13,.07-.05,.03-.1,.06-.16,.09-.05,.03-.11,.07-.16,.11l-.1,.07c-.06,.04-.11,.08-.16,.13-.21,.17-.4,.34-.58,.54l-.09,.11c-.06,.07-.12,.14-.19,.22-.05,.06-.09,.12-.13,.17l-.07,.1-.07,.1s-.05,.08-.08,.13l-.05,.07-.06,.1-.06,.11c-.04,.07-.08,.14-.12,.2-.04,.09-.08,.17-.12,.26-.03,.06-.05,.12-.08,.18-.05,.11-.09,.22-.13,.34l-.04,.11-.04,.1c-.02,.07-.04,.14-.06,.21-.03,.1-.06,.21-.08,.31-.01,.05-.02,.1-.03,.14-.02,.06-.03,.12-.04,.19l-.02,.1c0,.05-.02,.1-.02,.16v.11l-.02,.09v.11c-.03,.2-.04,.41-.04,.62,0,.08,0,.17,0,.25v.12Zm.88-.82v-.1l.02-.08v-.1l.03-.11,.02-.11s.02-.09,.03-.15c0-.04,.02-.08,.03-.12,.02-.09,.04-.18,.06-.27,.02-.05,.03-.11,.05-.16l.03-.1,.04-.1c.03-.09,.07-.19,.11-.29,.02-.05,.04-.09,.06-.14,.03-.08,.07-.15,.11-.23,.03-.06,.06-.12,.09-.17l.06-.11,.05-.08,.04-.07,.08-.12,.04-.06,.07-.1s.07-.09,.11-.13c.05-.06,.1-.12,.15-.18l.08-.09c.15-.17,.32-.32,.5-.46,.04-.04,.09-.07,.13-.1l.11-.08s.08-.05,.13-.08c.04-.03,.08-.05,.14-.08l.1-.06s.09-.05,.13-.07l.04-.02s.1-.05,.14-.07c.08-.03,.15-.07,.23-.09l.08-.03,.06-.02,.07-.02,.1-.03s.08-.02,.12-.03h.05l.05-.03c.05-.01,.1-.03,.15-.03,.06-.01,.13-.03,.19-.03,.06-.01,.13-.02,.2-.03,.05,0,.1-.01,.16-.02h.13s.07-.01,.11-.01h.04c.08,0,.15,0,.22,0h.1c.06,0,.11,.01,.17,.02h.11s.09,.02,.14,.03l.11,.02,.11,.02,.1,.02c.06,.01,.12,.02,.2,.05,.07,.02,.14,.04,.22,.06,.08,.02,.16,.05,.24,.08,.07,.02,.14,.06,.22,.09,.07,.03,.15,.07,.22,.1,.07,.03,.15,.07,.22,.11,.05,.03,.1,.06,.15,.09l.08,.05s.09,.06,.15,.09l.09,.06s.09,.07,.15,.11c.07,.05,.13,.1,.21,.16,.04,.03,.08,.07,.13,.11,.08,.07,.15,.14,.22,.2,.06,.05,.11,.11,.15,.15,.06,.07,.13,.13,.19,.2l.06,.08,.08,.09,.07,.1,.09,.11,.09,.13,.11,.16c.05,.08,.11,.18,.17,.27,.03,.06,.07,.12,.11,.18l.07,.13c.03,.05,.05,.11,.08,.16,.03,.06,.06,.13,.09,.2l.03,.06c.03,.06,.05,.12,.08,.2,.02,.07,.05,.13,.07,.19l.02,.05c.03,.08,.05,.15,.07,.24,.01,.04,.03,.08,.04,.11,0,.02,0,.04,.01,.06,.02,.05,.03,.11,.04,.18,.02,.06,.03,.13,.04,.18,.02,.09,.03,.17,.05,.25l.02,.13s.01,.08,.02,.13c0,.04,.01,.08,.02,.13,0,.06,.01,.11,.02,.16,0,.06,0,.11,.01,.18,0,.04,0,.09,0,.15,0,.06,0,.12,0,.17,0,1.15-.32,2.19-.87,3.03-.18,.28-.39,.54-.61,.77-.91,.92-2.15,1.43-3.53,1.31-.09,0-.18-.02-.28-.03-.06,0-.11-.02-.17-.03-.06-.01-.12-.02-.19-.04-.09-.02-.17-.04-.26-.07-.05-.01-.09-.03-.13-.04-.05-.02-.09-.03-.14-.05-.04-.02-.09-.03-.13-.05-.07-.03-.14-.06-.21-.09-.07-.03-.14-.06-.21-.09l-.11-.06-.09-.05s-.07-.04-.11-.06c-.11-.07-.22-.14-.33-.21l-.05-.03s-.09-.07-.13-.09c-.04-.03-.07-.05-.12-.09-.04-.03-.09-.07-.14-.12-.05-.04-.1-.09-.15-.13-.04-.04-.09-.08-.13-.12l-.04-.04c-.05-.05-.1-.1-.15-.15-.12-.13-.23-.26-.34-.4-.04-.05-.07-.09-.11-.15l-.05-.07-.07-.11-.04-.06-.08-.13c-.04-.05-.07-.1-.11-.17l-.09-.17c-.1-.17-.18-.35-.27-.54-.03-.07-.05-.13-.08-.19l-.04-.11c-.06-.15-.11-.3-.16-.46-.02-.05-.03-.09-.04-.15-.06-.21-.1-.42-.14-.63,0-.06-.02-.12-.03-.19,0-.05-.01-.1-.02-.15,0-.04,0-.08-.01-.12,0-.05,0-.1-.01-.14v-.22c-.01-.07-.01-.14-.01-.21,0-.17,0-.35,.02-.52Z"/></g></g></g><g><circle class="cls-6" cx="79.81" cy="40.27" r=".48"/><polyline class="cls-5" points="71.15 14.53 79.81 23.62 79.81 38.88"/></g></g></svg>